<svg xmlns="http://www.w3.org/2000/svg" viewBox="0 0 182.014 60"><defs><style>.cls-1{fill:#a79479}</style></defs><path id="logo_FC" d="M-4215.836-2533.12c-.36-.12-.12-1.442.12-2.645l.12-.361c.241-1.442 8.057-22.245 9.861-25.01l.36-.481-.481.241s-3.607 1.442-5.169 1.924h-.121v.12s-2.526 4.569-5.291 4.81h-.721c-2.285 0-3.127-1.323-3.247-2.646 0-.6-.12-1.323-.721-1.323-.361 0-.721.24-1.563.721a6.835 6.835 0 0 0-.841.481c-1.923 1.2-5.893 3.607-9.138 3.607a3.887 3.887 0 0 1-2.646-.841 4.65 4.65 0 0 1-1.562-3.247c-.361-3.848 2.283-9.74 6.131-14.069a39.23 39.23 0 0 1 7.815-6.314v-3.545c0-.6-.24-.841-.72-.841h-.121v-.361h5.771v1.925h-.24c0-.24-.12-.361-.12-.6a.63.63 0 0 0-.241-.482c-.12-.119-.36-.24-.481-.36a1.086 1.086 0 0 0-.6-.12h-.841c-.241 0-.361 0-.481.12s-.12.241-.12.6v2.283h.526q.8-.441 1.588-.841a1.2 1.2 0 0 0 .051-.361h.24v.216c3.241-1.6 6.344-2.621 8.538-2.621 1.563 0 2.524.481 3.005 1.442a7.526 7.526 0 0 1 .186 5.524.2.2 0 0 0 .054.008.444.444 0 0 0 .361.12h.12v.241h-.671a12.267 12.267 0 0 1-4.739 5.531c-2.886 1.925-5.412 3.607-8.3 4.208-.36 0-.6.121-.841.121a3.447 3.447 0 0 1-3.006-1.685c-.962-1.2-1.083-2.523-.24-3.366a4.163 4.163 0 0 1 2.285-1.322c.12 0 .24 0 .24.12s-.12.241-.361.481a1.851 1.851 0 0 0-.961 1.8 2.449 2.449 0 0 0 2.284 2.283 1.092 1.092 0 0 0 .6-.119 28.784 28.784 0 0 0 8.417-4.69 11.892 11.892 0 0 0 2.879-3.366h-1.436v-.241h.12a.724.724 0 0 0 .481-.12.624.624 0 0 0 .24-.481.725.725 0 0 0-.12-.481l-.361-.841h-2.165l-.36.841c0 .121 0 .121-.12.241v.24c0 .241 0 .361.12.481s.241.12.481.12h.12v.241h-2.524v-.241h.119a1.039 1.039 0 0 0 .722-.36 2.6 2.6 0 0 0 .6-.962l1.688-3.967c-1.842.042-4.545 1.07-7.459 2.708v.778h-.24a1.076 1.076 0 0 0-.14-.562c-.668.385-1.346.8-2.025 1.243v.281c0 .6.24.841.841.841h.121v.241h-2.945a48.043 48.043 0 0 0-4.149 3.366c-4.088 3.728-9.5 12.265-6.974 15.391a3.547 3.547 0 0 0 3.007 1.323c1.923 0 4.208-1.323 6.251-2.406l.481-.24c3.126-1.683 6.253-3.487 7.1-3.848h.119v-.12s.241-.721 1.443-.721c1.444 0 3.968.361 4.811 1.322a1.051 1.051 0 0 0 .721.241 4.16 4.16 0 0 0 1.563-.361c.481-.241.842-.361 1.323-.6a14.725 14.725 0 0 0 3.125-1.563 52.633 52.633 0 0 0 3.968-5.53c.24-.482 0-.6-.121-.842a.71.71 0 0 1-.24-.6c0-.12.121-.241.361-.241h.48a1.722 1.722 0 0 0 1.2-.48c.12-.121.241-.361.481-.6.75-.938 1.793-2.388 2.9-3.608h-.857v-.24h.121c.48 0 .841-.24.72-.841v-4.809l-2.284 5.89h-.121l-2.283-6.011v4.93c0 .6.24.841.841.841h.121v.24h-2.165v-.12h.12c.481 0 .842-.24.721-.841v-4.81c0-.6-.24-.841-.721-.841h-.12v-.361h2.645l1.563 4.329 1.683-4.329h2.526v.241h-.12a.759.759 0 0 0-.841.842v4.431a8.368 8.368 0 0 1 4.328-1.907 1.8 1.8 0 0 1 1.2.361 1.95 1.95 0 0 1 .841 1.683q0 1.983-3.246 4.689l-.12.12v.121c0 .12.24.361.961.361h.723c1.562-.121 5.651-.482 6.732-.722h.241c.12 0 .241 0 .241.12 0 .241-.241.6-.842.842a18.609 18.609 0 0 1-4.811 1.2c-.24 0-.48.12-.721.12a14.088 14.088 0 0 0-6.494 2.045c-.48.361-1.081.72-1.682 1.2-2.043 1.442-4.33 3.006-6.012 3.968 0 .12-3.969 6.854-6.614 12.987-1.8 4.328-3.607 9.739-4.69 13.225-.6 1.683-.96 3.007-1.081 3.247-.121.721-.361.721-.6.721a.909.909 0 0 1-.478-.115zm-2.646-25.13c-.12.12-.12.241-.12.481 0 .962.241 1.684 1.923 1.684s2.766-1.924 2.766-2.045l.121-.24-.241-.12h-.241a6.955 6.955 0 0 0-1.2.24 7.212 7.212 0 0 1-1.442.241h-.12a1.718 1.718 0 0 1-.722-.241c-.12 0-.36-.12-.48-.12s-.243-.001-.243.119zm3.127-2.886c-.841.241-1.324.6-1.324.962 0 .24.241.481 1.083.481h.241a4.244 4.244 0 0 0 2.285-.722l.12-.12-.12-.12c0-.12-.481-.6-1.443-.6a2.349 2.349 0 0 0-.841.119zm15.631-5.892c-.121.241.12.481.24.241l3.608-2.526h-.6a12.552 12.552 0 0 1-1.443-.121h-.12zm6.854-8.657a46.071 46.071 0 0 0-3.487 3.847c-.12.121 0 .361.24.361h1.8a2.64 2.64 0 0 0 1.442-.6l.12-.12s3.968-3.848 3.968-4.809c-.12.12-.24-.241-.841-.241a6.082 6.082 0 0 0-3.242 1.562zm-15.254-2.35a3.459 3.459 0 0 0-.979-2.579 2.436 2.436 0 0 0-.243-.214zm-3.864-.3h1.8l-.962-2.165zm-39.679 32.706V-2593h.36v47.374zm-35.711-2.4l-2.646-2.646a18 18 0 0 1-6.614-2.765h-3.727a1.644 1.644 0 0 1-1.684-1.684v-3.728a18.877 18.877 0 0 1-2.766-6.613l-2.645-2.646a1.6 1.6 0 0 1 0-2.4l2.645-2.646a17.983 17.983 0 0 1 2.766-6.613v-3.728a1.644 1.644 0 0 1 1.684-1.683h3.727a18.869 18.869 0 0 1 6.614-2.765l2.646-2.646a1.54 1.54 0 0 1 1.2-.481 1.545 1.545 0 0 1 1.2.481l2.645 2.646a17.971 17.971 0 0 1 6.614 2.765h3.727a1.644 1.644 0 0 1 1.683 1.683v3.728a18.859 18.859 0 0 1 2.766 6.613l2.646 2.646a1.829 1.829 0 0 1 0 2.4l-2.646 2.646a17.966 17.966 0 0 1-2.766 6.613v3.728a1.644 1.644 0 0 1-1.683 1.684h-3.727a18.884 18.884 0 0 1-6.614 2.765l-2.645 2.646a1.545 1.545 0 0 1-1.2.481 1.54 1.54 0 0 1-1.2-.482zm.24-.241a1.36 1.36 0 0 0 .961.361 1.362 1.362 0 0 0 .962-.361l2.406-2.4.48-.481 2.406-2.4.24-.24.12-.12.6-.6 1.083-1.083.361-.361 1.563-1.562.241-.241 1.2-1.2.24-.241 1.443-1.562v-2.4l-2.766 2.765-.241.241-1.2 1.2-.241.24-2.766 2.766-.36.361-1.683 1.684-.361.36-.24.241-.481.481-1.683 1.682-.361.361-.12.12-.361.361h-1.683a10.615 10.615 0 0 1-2.044-.24zm-.481-2.525h1.684l.481-.481.361-.36 1.081-1.083c-.36 0-.721.12-1.081.12h-2.406c-.36 0-.721-.12-1.082-.12-.24 0-.36-.12-.6-.12a10.435 10.435 0 0 1-2.766-.722c-.12-.12-.36-.12-.6-.24-.12 0-.12-.12-.24-.12-.24 0-.36-.121-.6-.241-.841-.48-1.683-.961-2.4-1.442-.12-.12-.361-.241-.481-.361-.24-.24-.6-.481-.842-.721l-.721.721-.36.361-.241.24a12.1 12.1 0 0 0 1.925 1.563c.24.12.36.24.6.361a25.772 25.772 0 0 0 2.524 1.322 26.9 26.9 0 0 0 2.886.961c.241 0 .481.121.481 0a7.738 7.738 0 0 0 2.396.357zm5.771-.361a26.753 26.753 0 0 0 2.886-.961 16.852 16.852 0 0 0 2.526-1.322h-3.127zm-3.125-1.682c.6-.121 1.081-.121 1.562-.241l.361-.36h-1.923zm-2.045-13.828v13.828h1.684v-13.828l-.842-.842zm-1.923 13.586a8.293 8.293 0 0 0 1.563.241v-.6h-1.924zm-.6-.12l-.241-.24h-.841c.359.119.723.119 1.08.24zm-12.144-5.771v3.848a1.334 1.334 0 0 0 1.322 1.322v.12h3.125a13.531 13.531 0 0 1-1.562-1.2c0-.12-.12-.12-.241-.24l.241-.241.36-.36.962-.962.24-.241.361-.36-1.2-1.2-.361.36-.24.241-.962.961-.361.361v-4.088l-.6-.6-.841-.842-.24-.24zm23.566 4.088l-.841.841-.24.241h7.214a1.334 1.334 0 0 0 1.323-1.322v-3.247a13.58 13.58 0 0 1-1.2 1.563c-.12 0-.12.12-.24.24l-.241-.24-.36-.361-.962-.962-.24-.24-.361-.361-1.2 1.2.481.48.24.241.962.961.361.361h-4.088zm-6.853 1.082h2.285l1.682-1.683h-3.967zm-9.258-1.2a4.845 4.845 0 0 0 1.082.6 2.946 2.946 0 0 0 1.442.481h4.329v-1.684h-7.7a2.151 2.151 0 0 0 .845.604zm9.258-.842v.121h4.328l3.126-3.127-7.455-7.455zm9.017 0h1.563l-.721-.721c-.242.238-.602.478-.844.718zm-1.081 0h.48a10.563 10.563 0 0 1 1.2-.961l-.36-.361zm-17.8-3.126l3.127 3.126h4.329v-10.461zm-2.043 2.165a8.506 8.506 0 0 0 1.2.961h.481l-1.322-1.322zm-10.341-13.468a1.369 1.369 0 0 0-.361.962 1.37 1.37 0 0 0 .361.962l2.285 2.284.481.36 2.4 2.4.241.241.12.12.6.6 1.081 1.082.361.361 1.563 1.563.24.241 1.2 1.2.241.24 1.563 1.563h2.406l-2.766-2.766-.241-.24-1.2-1.2-.24-.241-2.766-2.766-.361-.36-1.682-1.684-.241-.24-.24-.241-.481-.481-1.684-1.684-.36-.36-.121-.12-.36-.361v-1.683a10.609 10.609 0 0 1 .24-2.045zm37.756-.12v2.4c0 .361-.121.722-.121 1.082 0 .241-.12.361-.12.6a10.418 10.418 0 0 1-.721 2.766c-.12.12-.12.361-.24.6 0 .12-.121.12-.121.241 0 .24-.12.36-.24.6-.481.842-.962 1.683-1.443 2.406-.12.12-.24.36-.36.48-.241.241-.481.6-.721.842l.721.721.36.361.241.24a12.151 12.151 0 0 0 1.563-1.923c.12-.241.24-.361.36-.6a25.49 25.49 0 0 0 1.324-2.526 16.359 16.359 0 0 0 .841-2.645c0-.241.12-.481.12-.721a7.739 7.739 0 0 0 .361-2.406v-1.682l-.481-.481-.361-.361-1.083-1.082c.001.364.122.724.122 1.08zm-30.181 12.866l.722-.722c-.241-.24-.481-.6-.722-.841zm25.612-1.443l.36.361a8.492 8.492 0 0 0 .962-1.2v-.481zm-25.612-.841a10.558 10.558 0 0 0 .962 1.2l.36-.361-1.322-1.323zm3.367-18.4l7.7 7.7.361.36.6.6.241.24.36.361.481.481.36.36.241.24.6.6.361.36 7.695 7.7 1.2-1.2-7.695-7.695-.361-.36-.6-.6-.24-.24-.361-.361-.481-.481-.361-.36-.24-.241-.6-.6-.36-.36-7.7-7.7zm8.056 9.74l-.361.36-7.7 7.695 1.2 1.2 7.7-7.7.36-.36.6-.6-.24-.24-.361-.36-.36-.361-.241-.241zm-15.15 6.372a25.267 25.267 0 0 0 1.322 2.526v-3.126l-2.285-2.286a26.8 26.8 0 0 0 .964 2.884zm30.9-2.043v3.727a2.141 2.141 0 0 0 .6-.841 4.865 4.865 0 0 0 .6-1.082 7.48 7.48 0 0 0 .6-1.442v-4.329h-1.8zm-3.367 3.487l3.127-3.126v-4.329h-10.461zm-23.927-3.126l3.126 3.126 7.455-7.455h-10.581zm-1.923-2.044l1.682 1.683v-3.968h-1.682zm31.382.12v.842c.12-.361.12-.721.24-1.082zm-6.854-14.188l.241.24 1.2 1.2.24.241 2.766 2.765.36.361 1.685 1.683.24.36.24.241.481.481 1.683 1.683.361.36.12.12.36.361v1.684a10.6 10.6 0 0 1-.24 2.044l2.285-2.284a1.364 1.364 0 0 0 .361-.962 1.363 1.363 0 0 0-.361-.962l-2.285-2.285-.481-.481-2.4-2.4-.24-.24-.12-.12-.6-.6-1.083-1.082-.36-.361-1.563-1.563-.24-.24-1.2-1.2-.241-.24-1.562-1.563h-2.4zm6.854 13.707l.361-.36a7.047 7.047 0 0 0 .24-1.563h-.6zm-32.1-.36l.361.36v-1.923h-.6c.117.479.117 1.08.237 1.561zm.722-13.106c-.12.24-.241.361-.361.6a25.36 25.36 0 0 0-1.322 2.525 18.611 18.611 0 0 0-.962 2.766c0 .241-.12.481-.12.721a7.768 7.768 0 0 0-.361 2.406v1.683l.481.481.361.36 1.081 1.082c0-.361-.12-.721-.12-1.082v-2.4c0-.361.12-.721.12-1.083 0-.241.121-.361.121-.6a10.393 10.393 0 0 1 .721-2.766 1.7 1.7 0 0 1 .241-.721c0-.12.12-.12.12-.241 0-.24.12-.36.24-.6.481-.841.962-1.682 1.442-2.4.121-.12.241-.36.361-.481.241-.24.481-.6.722-.841l-.722-.721-.361-.361-.24-.24a22.982 22.982 0 0 0-1.444 1.911zm17.314 10.341l.841.842h13.828v-1.685h-13.828zm-18.277 0v.842h13.948l.722-.842-.842-.842h-13.828zm17.676-2.4l-.361.36-.6.6.24.241.361.36.361.361.24.241.6-.6.361-.36 7.695-7.7-1.2-1.2zm14.668 1.2h.6a6.1 6.1 0 0 0-.24-1.563l-.361-.36zm-2.044 0h1.685v-2.285l-1.685-1.684zm-10.821 0h10.581v-4.329l-3.126-3.126zm-16.473-4.329v4.329h10.581l-7.454-7.455zm-2.766 2.766c-.12.481-.12.962-.24 1.563h.6v-1.924zm1.924-5.41a4.818 4.818 0 0 0-.6 1.082 7.269 7.269 0 0 0-.6 1.442v4.329h1.8v-7.7a2.151 2.151 0 0 0-.601.841zm13.466-7.7v13.226l.841.842.842-.842v-13.828h-1.684zm2.045 12.866l7.455-7.335-3.126-3.127h-4.328zm-9.861-7.455l7.456 7.455v-10.583h-4.329zm-7.454 7.094l.24-.24v-.842c-.12.36-.12.719-.24 1.08zm31.983-3.247l2.285 2.285a27.15 27.15 0 0 0-.961-2.886 12.455 12.455 0 0 0-1.324-2.525zm-16.833-14.429l-2.285 2.285-.481.481-2.4 2.4-.241.241-.12.12-.6.6-1.082 1.082-.36.36-1.563 1.563-.24.241-1.2 1.2-.24.24-1.563 1.563v2.4l2.766-2.766.241-.24 1.2-1.2.24-.241 2.766-2.766.36-.24 1.685-1.684.36-.36.24-.241.481-.481 1.684-1.683.361-.36.12-.12.361-.361h1.684a10.6 10.6 0 0 1 2.043.24l-2.285-2.285a1.367 1.367 0 0 0-.962-.36 1.365 1.365 0 0 0-.97.371zm14.668 8.537v3.728l.6.6.962.961.241.241v-7.215a1.334 1.334 0 0 0-1.323-1.322h-3.126a13.626 13.626 0 0 1 1.563 1.2c0 .12.12.12.24.241l-.24.24-.361.36-.962.962-.24.241-.361.36 1.2 1.2.241-.36.24-.241.962-.961.36-.361zm-27.174 2.886v.6l1.322-1.322-.36-.481a8.492 8.492 0 0 0-.962 1.202zm25.612-.841l1.322 1.322v-.481a10.441 10.441 0 0 1-.962-1.2zm.6-.6c.24.24.48.6.721.841v-1.562zm-26.453-1.563l.24.361.962.961.24.241.361.36 1.2-1.2-.361-.36-.24-.241-.962-.962-.36-.36h3.967l.6-.6.841-.842.241-.24h-7.215a1.334 1.334 0 0 0-1.322 1.322v3.247a13.512 13.512 0 0 1 1.2-1.563c.12-.12.24-.24.24-.36zm24.168.481l.36-.361a8.44 8.44 0 0 0-1.2-.962h-.48zm-21.163-.361l.361.361 1.322-1.323h-.481a10.673 10.673 0 0 0-1.2.959zm9.979-4.208h2.045c.361 0 .721.12 1.082.12.24 0 .36.12.6.12a10.383 10.383 0 0 1 2.766.722c.12.12.36.12.6.24.12 0 .12.12.24.12.241 0 .361.12.6.241.841.48 1.684.961 2.4 1.442.121.12.361.24.481.361.24.24.6.481.841.721l.722-.721.361-.361.24-.24a12.115 12.115 0 0 0-1.924-1.563c-.24-.12-.36-.24-.6-.361a25.584 25.584 0 0 0-2.526-1.322 26.98 26.98 0 0 0-2.886-.962c-.24 0-.481-.12-.481 0a7.768 7.768 0 0 0-2.4-.36h-1.683l-.481.481-.36.36-1.083 1.082c.361 0 .721-.12 1.083-.12zm-10.341 3.968c.361-.241.6-.481.962-.722h-1.563zm12.266-1.082h3.967v.12h3.728a2.154 2.154 0 0 0-.842-.6 4.873 4.873 0 0 0-1.081-.6 7.378 7.378 0 0 0-1.443-.6h-4.328zm-6.373 0h3.968v-1.683h-2.286zm8.9-2.044h.721c-.36-.12-.721-.12-1.081-.24zm-2.524 0h1.923l-.361-.36a8.2 8.2 0 0 0-1.562-.241zm-3.968-.36l-.361.36h1.924v-.6a7 7 0 0 0-1.564.236zm-4.449-.962a25.509 25.509 0 0 0-2.524 1.322h3.125l2.285-2.285a27.126 27.126 0 0 0-2.887.959zm151.744 28.857a1.3 1.3 0 0 0-.841-.36 4.374 4.374 0 0 0-2.284 1.081l-.12.121a1.948 1.948 0 0 1-1.083.36 2.252 2.252 0 0 1-1.2-.481c-.121-.12-.121-.24-.241-.36-.12-.24-.36-.6-.721-.6a2.019 2.019 0 0 0-.6.24c-.24.241-.6.481-.841.721a2.8 2.8 0 0 1-1.444.962h-.119c-.24 0-.361-.12-.6-.36a3.268 3.268 0 0 1-.481-2.406c.12-.48.12-.721 0-.841 0-.12-.12-.12-.361-.12a3.713 3.713 0 0 0-1.443.721 13.259 13.259 0 0 1-5.53 2.4h-.361a2.112 2.112 0 0 1-1.562-.721 5.76 5.76 0 0 1-.962-3.968 1.624 1.624 0 0 0-.12-1.2.444.444 0 0 0-.361-.12c-.481 0-.961.48-1.684 1.322-.12.12-.241.24-.36.361l-.6.6c-1.083 1.083-2.887 3.006-4.209 3.126h-.12a4.737 4.737 0 0 1-3.608-2.4 1.126 1.126 0 0 0-.961-.721 33.883 33.883 0 0 0-3.367 1.563 16.783 16.783 0 0 1-5.651 1.443h-.24a2 2 0 0 1-1.683-.6 1.653 1.653 0 0 1 0-1.322c.12-.121.12-.241.24-.361.241-.361.481-.721.361-1.082a1.3 1.3 0 0 0-.6-.361 1.859 1.859 0 0 1-1.2-.6l-.12-.24-.6.481c-1.2 1.2-4.929 4.088-6.012 4.328h-.36c-.481 0-.481-.24-.6-1.082v-.721c0-.6 0-1.082-.481-1.082h-.121a9.618 9.618 0 0 0-1.683.962 9.672 9.672 0 0 1-2.526.962 1.526 1.526 0 0 1-.722.12c-.359 0-.48-.12-.48-.721 0-.842 2.886-4.449 4.208-5.05a1.087 1.087 0 0 1 .6-.12c.6 0 1.083.6 1.324.841.12.12.12.241.24.241a.726.726 0 0 0 .481.12c.36 0 .721-.361.961-.722a1.925 1.925 0 0 1 1.083-.841h.12c.24 0 .36.12.481.361a2.33 2.33 0 0 1-.361 2.164c-.12.241-.962 1.082-.721 1.563 0 .12.12.241.36.241a2.034 2.034 0 0 0 .6-.241c1.083-.6 3.367-3.247 4.57-4.809.119-.12.24-.241.36-.241.481 0 1.2.962 1.322 1.684a.694.694 0 0 0 .723.722 6.269 6.269 0 0 0 2.645-1.2 5.419 5.419 0 0 1 1.8-.841c.121 0 .361.12.6.6.24.721-.24 1.2-1.563 2.043-.24.121-.361.241-.6.361-.6.481-1.682 1.2-1.562 1.925.12.36.36.48.842.6h.119c1.2 0 3.127-.962 5.17-2.045a45.462 45.462 0 0 0 2.646-1.442 5.314 5.314 0 0 0 1.563-2.165c.841-1.563 1.924-3.487 4.448-3.848.361 0 .722-.121.962-.121a2.213 2.213 0 0 1 1.924.722 2.227 2.227 0 0 1 0 2.285c-.481.842-1.2 1.322-5.051 3.006q-1.8.722-1.8 1.8a1.836 1.836 0 0 0 1.8 1.925h.241c1.443 0 2.646-1.323 4.449-3.247.6-.721 1.443-1.442 2.285-2.4a30.26 30.26 0 0 1 9.378-6.253 7 7 0 0 1 2.525-.6c1.082 0 1.684.481 1.684 1.2 0 .842-.361.842-1.323.961a2.326 2.326 0 0 0-.841.121 11.527 11.527 0 0 0-5.05 2.165 9.37 9.37 0 0 0-3.487 5.531c-.361 1.443-.361 2.285-.12 2.646a1.183 1.183 0 0 0 .961.361 5.86 5.86 0 0 0 1.323-.121c1.685-.24 3.728-1.8 5.652-3.126a25.655 25.655 0 0 1 2.4-1.563c.6-.36 1.2-.842 1.8-1.2a4.7 4.7 0 0 1 2.285-1.2.912.912 0 0 1 .6.241 1.039 1.039 0 0 1 .482.841c0 .48-.723.962-1.444 1.442l-.12.121c-.842.6-3.487 2.645-3.607 3.367 0 .12 0 .24.12.24.12.12.24.24.361.24.36 0 .841-.24 2.645-1.323l1.2-.6a6.194 6.194 0 0 1 3.247-.962 2.759 2.759 0 0 1 2.765 1.684c.121.481-.119.6-.48.722-.24.12-.481.12-.481.36a.622.622 0 0 0 .241.481c.6.721 1.442.841 3.606 1.322.361.121.841.121 1.323.241a8.125 8.125 0 0 0 1.683.24c2.4 0 4.208-1.2 5.892-2.285a2.461 2.461 0 0 1 1.563-.6c.121 0 .24 0 .24.12.121.121-.119.722-.962 1.443-1.923 1.442-5.771 3.127-8.3 3.127a12.417 12.417 0 0 1-6.369-2.303zm-1.8-3.126c-.962.24-2.646 1.322-2.646 1.923v.241c0 .24 0 .841.6.841h.24a8.226 8.226 0 0 0 2.527-1.322c.24-.12.841-.842.72-1.322-.119-.361-.24-.481-.6-.481a2.345 2.345 0 0 0-.846.117zm-53.747.481a.675.675 0 0 0 .119.721.443.443 0 0 0 .361.12 4.641 4.641 0 0 0 2.286-1.2c.24-.24.24-.481.12-.6a1.381 1.381 0 0 0-1.322-.721c-.606-.007-1.45 1.071-1.571 1.677zm28.256-6.252a8.717 8.717 0 0 0-2.406 3.487 18.872 18.872 0 0 0 3.969-2.285 1.09 1.09 0 0 0 0-1.2.557.557 0 0 0-.6-.361 1.919 1.919 0 0 0-.967.355zm-7.576-9.259a2.844 2.844 0 0 1-1.081-.722 2.494 2.494 0 0 1-.722-1.2 1.657 1.657 0 0 1-.6-1.563 3.845 3.845 0 0 1 .361-1.682 4.307 4.307 0 0 1 .842-1.2 4.007 4.007 0 0 1 1.2-.722 5.136 5.136 0 0 1 1.323-.24 2.344 2.344 0 0 1 .961.12c.241.12.6.241.842.361a.442.442 0 0 0 .36.12c.121 0 .121 0 .241-.12a.42.42 0 0 0 .12-.241h.24v2.4h-.24c-.12-.24-.24-.6-.361-.841s-.36-.48-.48-.722a2.121 2.121 0 0 0-.6-.48 1.787 1.787 0 0 0-.842-.12 1.631 1.631 0 0 0-1.563.842 4.5 4.5 0 0 0-.48 2.4 4.247 4.247 0 0 0 .48 2.4 1.3 1.3 0 0 0 1.323.841 1.782 1.782 0 0 0 .841-.12 2.093 2.093 0 0 0 .6-.481v-1.082c0-.481 0-.721-.12-.841a.922.922 0 0 0-.6-.241h-.12v-.24h2.886v.24h-.361c-.12 0-.12.121-.12.241v2.886h-.241c0-.241-.24-.361-.48-.361a.442.442 0 0 0-.361.12c-.361.12-.6.241-.962.361a2.349 2.349 0 0 1-.961.12 5.126 5.126 0 0 1-1.33-.236zm33.428 0v-.241h.12a.725.725 0 0 0 .481-.12.624.624 0 0 0 .24-.481.725.725 0 0 0-.12-.481l-.36-.841h-2.165l-.361.841c0 .121 0 .121-.12.241v.24c0 .241 0 .361.12.481s.24.12.481.12h.12v.241h-2.4v-.241h.12a1.039 1.039 0 0 0 .721-.36 2.611 2.611 0 0 0 .6-.962l2.284-5.651h.241l2.526 5.771c.119.12.119.361.24.481s.24.24.24.361c.121.12.24.24.361.24a.439.439 0 0 0 .36.12h.12v.241zm-1.563-2.526h1.8l-.962-2.165zm-11.062 2.285h.12c.481 0 .841-.24.721-.841v-4.81c0-.6-.24-.841-.721-.841h-.12v-.361h3.367v.241h-.121a.76.76 0 0 0-.841.842v4.809c0 .6.24.841.841.841h.121v.24h-3.367v-.12zm-11.3 0h.121c.481 0 .842-.24.722-.841v-4.81c0-.6-.241-.841-.722-.841h-.121v-.361h3.368v.241h-.12a.76.76 0 0 0-.842.842v4.809a.9.9 0 0 0 .12.6c.121.12.241.12.481.12h.721a1.392 1.392 0 0 0 1.2-.481 4.281 4.281 0 0 0 .722-1.323h.24l-.12 2.165h-5.772v-.12zm-20.319 0h.12c.481 0 .842-.24.721-.841v-4.81c0-.6-.24-.841-.721-.841h-.12v-.361h3.367v.241h-.121a.759.759 0 0 0-.841.842v4.809c0 .6.24.841.841.841h.121v.24h-3.367v-.12z" class="cls-1" transform="translate(4308 2593)"/></svg>